# xmcd CD database file
#
# Track frame offsets:
#	150
#	17757
#	33700
#	51275
#
# Disc length: 893 seconds
#
# Revision: 8
# Processed by: cddbd v1.5PL3 Copyright (c) Steve Scherf et al.
# Submitted via: CDex 1.50beta10
#
DISCID=2f037b04
DTITLE=Oranges and Lemons - 空耳ケーキ - Raspbery heaven
DYEAR=2002
DGENRE=Soundtrack
TTITLE0=空耳ケーキ
TTITLE1=Raspberry heaven
TTITLE2=空耳ケーキ(off vocal)
TTITLE3=Raspberry heaven (off vocal)
EXTD=YEAR: 2002
EXTT0=
EXTT1=
EXTT2=
EXTT3=
PLAYORDER=
